HIERARCHY
ROOT Hips
{
  OFFSET 40.9192 92.6879 18.85
  CHANNELS 6 Xposition Yposition Zposition Zrotation Xrotation Yrotation
  JOINT LeftUpLeg
  {
    OFFSET 8.64259 1.95398 -2.38835
    CHANNELS 3 Zrotation Xrotation Yrotation
    JOINT LeftLeg
    {
      OFFSET 43.7702 0 0
      CHANNELS 3 Zrotation Xrotation Yrotation
      JOINT LeftFoot
      {
        OFFSET 40.6238 0 0
        CHANNELS 3 Zrotation Xrotation Yrotation
        JOINT LeftToeBase
        {
          OFFSET 12.7242 0 0
          CHANNELS 3 Zrotation Xrotation Yrotation
          End Site
          {
            OFFSET 0 0 0
          }
        }
      }
    }
  }
  JOINT RightUpLeg
  {
    OFFSET -8.2249 1.95398 -2.59336
    CHANNELS 3 Zrotation Xrotation Yrotation
    JOINT RightLeg
    {
      OFFSET 43.5653 0 0
      CHANNELS 3 Zrotation Xrotation Yrotation
      JOINT RightFoot
      {
        OFFSET 40.6238 0 0
        CHANNELS 3 Zrotation Xrotation Yrotation
        JOINT RightToeBase
        {
          OFFSET 12.7242 0 0
          CHANNELS 3 Zrotation Xrotation Yrotation
          End Site
          {
            OFFSET 0 0 0
          }
        }
      }
    }
  }
  JOINT Spine
  {
    OFFSET 0.165834 0.87714 6.61349
    CHANNELS 3 Zrotation Xrotation Yrotation
    JOINT Spine1
    {
      OFFSET 7.38963 1.71661e-005 0
      CHANNELS 3 Zrotation Xrotation Yrotation
      JOINT Spine2
      {
        OFFSET 11.9445 1.14441e-005 0
        CHANNELS 3 Zrotation Xrotation Yrotation
        JOINT Spine3
        {
          OFFSET 14.7254 4.19617e-005 0
          CHANNELS 3 Zrotation Xrotation Yrotation
          JOINT Spine4
          {
            OFFSET 10.9679 0 0
            CHANNELS 3 Zrotation Xrotation Yrotation
            JOINT RightShoulder
            {
              OFFSET 2.46616 -1.6653 3.69651
              CHANNELS 3 Zrotation Xrotation Yrotation
              JOINT RightArm
              {
                OFFSET 13.0012 0 0
                CHANNELS 3 Zrotation Xrotation Yrotation
                JOINT RightForeArm
                {
                  OFFSET 28.7848 1.52588e-005 0
                  CHANNELS 3 Zrotation Xrotation Yrotation
                  JOINT RightHand
                  {
                    OFFSET 26.5688 1.52588e-005 0
                    CHANNELS 3 Zrotation Xrotation Yrotation
                    End Site
                    {
                      OFFSET 0 0 0
                    }
                  }
                }
              }
            }
            JOINT LeftShoulder
            {
              OFFSET 2.38034 -1.29275 -3.7523
              CHANNELS 3 Zrotation Xrotation Yrotation
              JOINT LeftArm
              {
                OFFSET 16.3182 6.10351e-005 0
                CHANNELS 3 Zrotation Xrotation Yrotation
                JOINT LeftForeArm
                {
                  OFFSET 27.0901 0 0
                  CHANNELS 3 Zrotation Xrotation Yrotation
                  JOINT LeftHand
                  {
                    OFFSET 24.5451 1.52588e-005 0
                    CHANNELS 3 Zrotation Xrotation Yrotation
                    End Site
                    {
                      OFFSET 0 0 0
                    }
                  }
                }
              }
            }
            JOINT Neck
            {
              OFFSET 5.0226 -0.0266342 0
              CHANNELS 3 Zrotation Xrotation Yrotation
              JOINT Head
              {
                OFFSET 6.69363 2.86102e-005 0
                CHANNELS 3 Zrotation Xrotation Yrotation
                End Site
                {
                  OFFSET 0 0 0
                }
              }
            }
          }
        }
      }
    }
  }
}
MOTION
Frames:	10
Frame Time:	0.0416667
-47.4392 93.2249 -74.0696 95.9847 -42.3422 91.1634 -167.205 19.5919 89.234 -48.9144 20.7852 -5.47104 60.4709 1.69583 0.906973 40.8582 9.91022 6.14286 176.143 32.7813 89.3859 -50.3968 7.33391 -0.971032 60.7074 -2.32539 -1.34049 36.2655 0.361825 -7.86653 -0.148555 8.46475 -89.1784 9.94136 0.0772506 1.62426 -1.7306 0.148655 1.61927 -24.258 -0.414428 1.57241 -4.24536 -0.414429 1.5724 93.5875 -46.533 -95.9049 31.5305 -17.2247 27.1711 -9.74755 -16.0825 -66.6486 -19.0374 -0.428222 -2.36158 -90.7228 -44.9259 76.438 -18.893 1.62982 14.3119 15.3092 -0.567869 -90.5336 39.6308 2.99997 3.67029 2.33193 -1.38113 -2.85961 9.13919 -0.829555 1.21969 
-44.0056 94.1405 -70.5854 95.4707 -41.0455 90.7131 -167.541 18.1714 90.9396 -48.8284 25.7485 -5.21553 55.6812 -2.31937 -1.38262 43.1898 11.8811 5.7163 176.18 30.6703 88.6232 -31.8561 2.47737 -0.814125 50.1783 1.54306 1.47495 30.5687 0.524555 -8.9323 -0.31423 8.37568 -89.2494 10.122 -0.284047 1.51402 -1.5498 -0.217181 1.52505 -24.0792 -0.725912 1.3587 -4.06659 -0.725906 1.35871 93.9402 -46.6724 -95.3125 32.0672 -15.723 30.6777 -6.8908 -13.6392 -66.0499 -18.2066 -0.439655 -2.31853 -90.5175 -43.6234 76.4349 -20.2149 2.13882 13.5373 15.3544 -2.27586 -93.3874 39.18 2.41224 2.22053 -0.116474 -1.78961 -3.06944 10.3334 -1.22694 1.47275 
-40.4731 94.7673 -66.9787 96.736 -39.08 91.1713 -168.19 15.0751 92.6592 -48.5737 30.4247 -4.47568 52.5339 -4.74728 -3.01095 43.0951 11.4794 2.71345 175.407 26.4793 87.7766 -14.8958 -3.97412 -0.739329 43.6353 4.01501 3.84691 24.7224 0.567357 -7.71699 -0.529177 8.40612 -89.2831 10.0644 -0.728072 1.48375 -1.60726 -0.662064 1.51434 -24.1393 -1.14031 1.19641 -4.12664 -1.14032 1.19639 94.5635 -46.2329 -94.3792 33.1475 -14.3034 33.9947 -7.07223 -12.2748 -66.5657 -16.5107 -0.349001 -2.80587 -90.4933 -42.4896 76.1818 -20.9321 3.34018 13.4407 16.342 -3.74901 -97.0133 37.7966 2.51096 2.73469 -1.7172 -2.35622 -3.75635 10.8 -1.66347 2.16873 
-36.7374 94.9222 -63.0798 96.8726 -37.1517 91.3379 -168.625 12.7413 94.7511 -48.4276 36.5777 -3.7543 48.8304 -7.51951 -4.2614 45.28 13.1105 1.60771 174.368 24.7381 87.3608 -5.86922 -4.20462 0.206234 41.063 5.11975 5.10132 22.1335 0.298682 -5.14157 -0.707677 8.32605 -89.3486 10.2271 -1.1124 1.38864 -1.44416 -1.0502 1.43624 -23.9797 -1.4783 0.990131 -3.96706 -1.4783 0.990132 95.2225 -44.9545 -93.5018 35.0323 -12.5051 37.1285 -7.13365 -11.9174 -66.5096 -15.3661 -0.169063 -4.01522 -90.1362 -41.2129 76.4324 -21.4244 4.97458 13.1922 17.0433 -5.36055 -100.387 35.634 2.20034 2.27614 -2.47135 -3.06882 -4.28108 11.0489 -2.2782 2.62769 
-33.149 94.4996 -59.2711 97.95 -34.5796 91.3491 -169.638 10.4284 95.9641 -50.4366 39.9053 -2.30491 46.4772 -9.1224 -5.92712 44.759 12.5554 0.488566 173.94 24.7149 86.2203 -6.52445 -0.973641 0.285254 40.283 5.27849 5.33547 16.8151 0.330191 -5.39681 -0.976996 8.29934 -89.2876 10.2848 -1.62092 1.55452 -1.38616 -1.55092 1.62434 -23.9258 -2.01315 0.995449 -3.91314 -2.01314 0.995455 95.8161 -43.3849 -92.746 37.2154 -10.5175 40.1904 -9.2007 -11.6535 -67.3107 -13.3263 -0.205056 -3.78387 -89.2065 -39.352 77.509 -22.2706 7.57822 12.9555 16.7316 -7.06763 -103.767 34.2584 1.5822 0.681682 -2.48269 -3.76236 -5.63954 10.4302 -2.75171 3.41887 
-29.7676 93.1725 -55.6108 99.7939 -32.5145 91.3713 -171.005 8.50846 96.5302 -54.7836 42.3349 -0.640576 44.0296 -10.709 -7.35028 45.9293 13.5386 0.980216 173.716 25.4855 85.1219 -13.5839 -1.15885 0.00601714 39.2838 5.41984 5.57151 13.1353 0.866986 -8.16732 -1.1943 8.27054 -89.1832 10.3468 -2.00542 1.79682 -1.32392 -1.92438 1.88333 -23.8669 -2.45267 1.11092 -3.85429 -2.45264 1.11093 95.7794 -42.0845 -93.0004 38.5757 -8.34416 43.1551 -10.7167 -11.3452 -67.2717 -10.5083 -0.106343 -4.90968 -88.8702 -38.6905 77.9136 -22.1723 9.90301 13.4264 16.7738 -8.97873 -106.916 32.1852 1.03736 -0.745045 -3.19141 -4.34415 -5.89623 9.93927 -3.363 3.39669 
-26.6162 91.1625 -52.2133 101.535 -31.0183 90.7083 -172.784 7.64124 96.0652 -60.9165 41.4814 0.828464 42.8271 -11.2285 -9.15715 44.3836 12.6787 3.9312 172.43 27.1768 83.8373 -25.2078 -1.5644 0.755158 45.2118 3.83881 3.70623 18.4012 -0.375474 -1.10306 -1.28524 8.22401 -89.0252 10.4423 -2.11318 2.12327 -1.22886 -2.01772 2.21419 -23.7708 -2.65355 1.38994 -3.75812 -2.65355 1.38993 96.1091 -42.5372 -92.3708 37.8678 -7.21905 45.0964 -10.9354 -11.174 -66.5137 -8.94787 -0.0838166 -5.41348 -88.9224 -39.0051 77.9032 -21.2935 12.557 13.6362 17.0392 -10.3285 -108.702 31.5576 1.28382 0.132645 -3.6147 -5.31011 -5.87247 8.8801 -4.39005 3.32214 
-23.3963 89.2398 -49.1407 103.385 -30.3698 92.6542 -174.205 7.92606 97.4144 -68.5736 38.7866 2.24893 43.761 -10.4935 -6.83146 42.6286 11.8055 9.5784 172.314 27.904 85.3036 -37.3547 -1.985 0.89305 59.6772 -0.507334 -0.200785 19.9351 -0.146347 -2.1224 -1.22311 8.26682 -89.2486 10.3559 -2.09269 1.67517 -1.31452 -2.01692 1.76564 -23.8598 -2.49934 0.968606 -3.8471 -2.49933 0.968606 95.845 -42.8719 -92.7711 36.394 -6.92874 45.0129 -10.6278 -11.6057 -64.4057 -9.07227 -0.13874 -4.75684 -89.1371 -40.3687 77.8806 -21.2575 13.6514 13.2767 17.6343 -10.5543 -107.675 29.6163 1.22028 0.197364 -3.49452 -6.38386 -3.62942 8.05273 -5.83802 1.7652 
-20.4139 87.8625 -46.5012 104.157 -30.8812 95.877 -174.894 10.4418 99.8773 -75.8598 28.2263 2.92435 47.9926 -6.74752 -3.32342 39.51 9.02379 11.0824 173.615 29.0884 88.8648 -46.4126 0.648453 0.349232 63.3281 -2.28216 -1.28148 25.8147 0.0168816 -1.77303 -0.959343 8.40228 -89.7128 10.0762 -1.78096 0.717814 -1.59377 -1.74763 0.795512 -24.1386 -1.91432 0.149198 -4.126 -1.91432 0.149195 95.9672 -44.9966 -92.27 32.2935 -7.9978 39.8569 -10.0279 -14.1032 -60.1683 -10.2968 -0.256672 -3.4406 -89.9659 -43.7429 77.3455 -20.5162 13.3534 11.4306 18.4162 -8.9428 -103.352 29.3973 1.6678 1.80369 -0.79962 -7.53429 -1.58769 5.89194 -7.2232 0.790107 
-17.9891 87.0412 -44.8152 104.41 -31.0967 96.7355 -175.352 14.391 99.2111 -80.7423 18.5116 2.79566 51.5018 -3.27165 0.659695 38.1268 7.70704 10.885 174.157 30.0201 89.9676 -52.2174 1.57782 -0.0549003 65.0492 -3.55694 -2.00989 29.8281 0.171048 -2.1462 -0.810532 8.55791 -89.9573 9.76018 -1.59631 0.211182 -1.90982 -1.58547 0.281246 -24.4527 -1.58596 -0.278457 -4.44007 -1.58596 -0.27847 95.7846 -46.5618 -92.3538 27.7358 -8.66578 30.4434 -7.50282 -18.3125 -52.498 -10.7843 -0.519261 -0.893459 -92.2234 -46.9339 74.6217 -20.6951 10.3272 10.9894 21.582 -6.01594 -96.1099 27.4167 1.97513 3.38517 1.47635 -8.49764 0.125096 4.61835 -8.43463 -0.239908 
